<svg id="visual" viewBox="0 0 960 300" width="960" height="300" xmlns="http://www.w3.org/2000/svg" xmlns:xlink="http://www.w3.org/1999/xlink" version="1.1"><rect x="0" y="0" width="960" height="300" fill="#FFF7E9"></rect><path d="M0 206L12.3 188.5C24.7 171 49.3 136 74 121C98.7 106 123.3 111 148 109.7C172.7 108.3 197.3 100.7 221.8 93.8C246.3 87 270.7 81 295.2 84.2C319.7 87.3 344.3 99.7 369 115.3C393.7 131 418.3 150 443 160.8C467.7 171.7 492.3 174.3 517 175C541.7 175.7 566.3 174.3 591 156.7C615.7 139 640.3 105 664.8 106.3C689.3 107.7 713.7 144.3 738.2 152.5C762.7 160.7 787.3 140.3 812 132.5C836.7 124.7 861.3 129.3 886 119C910.7 108.7 935.3 83.3 947.7 70.7L960 58L960 0L947.7 0C935.3 0 910.7 0 886 0C861.3 0 836.7 0 812 0C787.3 0 762.7 0 738.2 0C713.7 0 689.3 0 664.8 0C640.3 0 615.7 0 591 0C566.3 0 541.7 0 517 0C492.3 0 467.7 0 443 0C418.3 0 393.7 0 369 0C344.3 0 319.7 0 295.2 0C270.7 0 246.3 0 221.8 0C197.3 0 172.7 0 148 0C123.3 0 98.7 0 74 0C49.3 0 24.7 0 12.3 0L0 0Z" fill="#fff7e9"></path><path d="M0 67L12.3 80.3C24.7 93.7 49.3 120.3 74 135C98.7 149.7 123.3 152.3 148 136.5C172.7 120.7 197.3 86.3 221.8 91C246.3 95.7 270.7 139.3 295.2 144C319.7 148.7 344.3 114.3 369 107C393.7 99.7 418.3 119.3 443 124C467.7 128.7 492.3 118.3 517 106.5C541.7 94.7 566.3 81.3 591 93.8C615.7 106.3 640.3 144.7 664.8 162.8C689.3 181 713.7 179 738.2 167C762.7 155 787.3 133 812 129.2C836.7 125.3 861.3 139.7 886 130.3C910.7 121 935.3 88 947.7 71.5L960 55L960 0L947.7 0C935.3 0 910.7 0 886 0C861.3 0 836.7 0 812 0C787.3 0 762.7 0 738.2 0C713.7 0 689.3 0 664.8 0C640.3 0 615.7 0 591 0C566.3 0 541.7 0 517 0C492.3 0 467.7 0 443 0C418.3 0 393.7 0 369 0C344.3 0 319.7 0 295.2 0C270.7 0 246.3 0 221.8 0C197.3 0 172.7 0 148 0C123.3 0 98.7 0 74 0C49.3 0 24.7 0 12.3 0L0 0Z" fill="#f8f4e4"></path><path d="M0 135L12.3 121C24.7 107 49.3 79 74 65.3C98.7 51.7 123.3 52.3 148 57.8C172.7 63.3 197.3 73.7 221.8 74.8C246.3 76 270.7 68 295.2 68.5C319.7 69 344.3 78 369 81.8C393.7 85.7 418.3 84.3 443 85.2C467.7 86 492.3 89 517 84.3C541.7 79.7 566.3 67.3 591 72.8C615.7 78.3 640.3 101.7 664.8 119.7C689.3 137.7 713.7 150.3 738.2 136.7C762.7 123 787.3 83 812 64.3C836.7 45.7 861.3 48.3 886 48.7C910.7 49 935.3 47 947.7 46L960 45L960 0L947.7 0C935.3 0 910.7 0 886 0C861.3 0 836.7 0 812 0C787.3 0 762.7 0 738.2 0C713.7 0 689.3 0 664.8 0C640.3 0 615.7 0 591 0C566.3 0 541.7 0 517 0C492.3 0 467.7 0 443 0C418.3 0 393.7 0 369 0C344.3 0 319.7 0 295.2 0C270.7 0 246.3 0 221.8 0C197.3 0 172.7 0 148 0C123.3 0 98.7 0 74 0C49.3 0 24.7 0 12.3 0L0 0Z" fill="#f1f1df"></path><path d="M0 136L12.3 129.5C24.7 123 49.3 110 74 103.3C98.7 96.7 123.3 96.3 148 96.8C172.7 97.3 197.3 98.7 221.8 89.7C246.3 80.7 270.7 61.3 295.2 52.8C319.7 44.3 344.3 46.7 369 56C393.7 65.3 418.3 81.7 443 84.2C467.7 86.7 492.3 75.3 517 80.2C541.7 85 566.3 106 591 111.3C615.7 116.7 640.3 106.3 664.8 103.2C689.3 100 713.7 104 738.2 108C762.7 112 787.3 116 812 112.5C836.7 109 861.3 98 886 89.2C910.7 80.3 935.3 73.7 947.7 70.3L960 67L960 0L947.7 0C935.3 0 910.7 0 886 0C861.3 0 836.7 0 812 0C787.3 0 762.7 0 738.2 0C713.7 0 689.3 0 664.8 0C640.3 0 615.7 0 591 0C566.3 0 541.7 0 517 0C492.3 0 467.7 0 443 0C418.3 0 393.7 0 369 0C344.3 0 319.7 0 295.2 0C270.7 0 246.3 0 221.8 0C197.3 0 172.7 0 148 0C123.3 0 98.7 0 74 0C49.3 0 24.7 0 12.3 0L0 0Z" fill="#e8eddb"></path><path d="M0 87L12.3 77.8C24.7 68.7 49.3 50.3 74 49.3C98.7 48.3 123.3 64.7 148 78.8C172.7 93 197.3 105 221.8 102.8C246.3 100.7 270.7 84.3 295.2 82.3C319.7 80.3 344.3 92.7 369 97.8C393.7 103 418.3 101 443 90.7C467.7 80.3 492.3 61.7 517 53.7C541.7 45.7 566.3 48.3 591 49.8C615.7 51.3 640.3 51.7 664.8 58C689.3 64.3 713.7 76.7 738.2 75.7C762.7 74.7 787.3 60.3 812 53.8C836.7 47.3 861.3 48.7 886 59C910.7 69.3 935.3 88.7 947.7 98.3L960 108L960 0L947.7 0C935.3 0 910.7 0 886 0C861.3 0 836.7 0 812 0C787.3 0 762.7 0 738.2 0C713.7 0 689.3 0 664.8 0C640.3 0 615.7 0 591 0C566.3 0 541.7 0 517 0C492.3 0 467.7 0 443 0C418.3 0 393.7 0 369 0C344.3 0 319.7 0 295.2 0C270.7 0 246.3 0 221.8 0C197.3 0 172.7 0 148 0C123.3 0 98.7 0 74 0C49.3 0 24.7 0 12.3 0L0 0Z" fill="#e0ebd8"></path><path d="M0 86L12.3 82.5C24.7 79 49.3 72 74 62.7C98.7 53.3 123.3 41.7 148 38C172.7 34.3 197.3 38.7 221.8 39.8C246.3 41 270.7 39 295.2 44C319.7 49 344.3 61 369 61C393.7 61 418.3 49 443 48.5C467.7 48 492.3 59 517 67.7C541.7 76.3 566.3 82.7 591 78.3C615.7 74 640.3 59 664.8 54.8C689.3 50.7 713.7 57.3 738.2 64C762.7 70.7 787.3 77.3 812 70.8C836.7 64.3 861.3 44.7 886 38.7C910.7 32.7 935.3 40.3 947.7 44.2L960 48L960 0L947.7 0C935.3 0 910.7 0 886 0C861.3 0 836.7 0 812 0C787.3 0 762.7 0 738.2 0C713.7 0 689.3 0 664.8 0C640.3 0 615.7 0 591 0C566.3 0 541.7 0 517 0C492.3 0 467.7 0 443 0C418.3 0 393.7 0 369 0C344.3 0 319.7 0 295.2 0C270.7 0 246.3 0 221.8 0C197.3 0 172.7 0 148 0C123.3 0 98.7 0 74 0C49.3 0 24.7 0 12.3 0L0 0Z" fill="#d6e8d5"></path><path d="M0 60L12.3 56.7C24.7 53.3 49.3 46.7 74 41.8C98.7 37 123.3 34 148 33.2C172.7 32.3 197.3 33.7 221.8 34.3C246.3 35 270.7 35 295.2 40.2C319.7 45.3 344.3 55.7 369 56.2C393.7 56.7 418.3 47.3 443 41.3C467.7 35.3 492.3 32.7 517 33.7C541.7 34.7 566.3 39.3 591 37.8C615.7 36.3 640.3 28.7 664.8 28.5C689.3 28.3 713.7 35.7 738.2 37.3C762.7 39 787.3 35 812 38C836.7 41 861.3 51 886 54.7C910.7 58.3 935.3 55.7 947.7 54.3L960 53L960 0L947.7 0C935.3 0 910.7 0 886 0C861.3 0 836.7 0 812 0C787.3 0 762.7 0 738.2 0C713.7 0 689.3 0 664.8 0C640.3 0 615.7 0 591 0C566.3 0 541.7 0 517 0C492.3 0 467.7 0 443 0C418.3 0 393.7 0 369 0C344.3 0 319.7 0 295.2 0C270.7 0 246.3 0 221.8 0C197.3 0 172.7 0 148 0C123.3 0 98.7 0 74 0C49.3 0 24.7 0 12.3 0L0 0Z" fill="#cde5d4"></path><path d="M0 18L12.3 17.7C24.7 17.3 49.3 16.7 74 16.7C98.7 16.7 123.3 17.3 148 20.8C172.7 24.3 197.3 30.7 221.8 30.7C246.3 30.7 270.7 24.3 295.2 21.7C319.7 19 344.3 20 369 22.3C393.7 24.7 418.3 28.3 443 26.8C467.7 25.3 492.3 18.7 517 16.5C541.7 14.3 566.3 16.7 591 22C615.7 27.3 640.3 35.7 664.8 38.7C689.3 41.7 713.7 39.3 738.2 37C762.7 34.7 787.3 32.3 812 33.7C836.7 35 861.3 40 886 37.8C910.7 35.7 935.3 26.3 947.7 21.7L960 17L960 0L947.7 0C935.3 0 910.7 0 886 0C861.3 0 836.7 0 812 0C787.3 0 762.7 0 738.2 0C713.7 0 689.3 0 664.8 0C640.3 0 615.7 0 591 0C566.3 0 541.7 0 517 0C492.3 0 467.7 0 443 0C418.3 0 393.7 0 369 0C344.3 0 319.7 0 295.2 0C270.7 0 246.3 0 221.8 0C197.3 0 172.7 0 148 0C123.3 0 98.7 0 74 0C49.3 0 24.7 0 12.3 0L0 0Z" fill="#c3e2d4"></path></svg>