<svg id="visual" viewBox="0 0 1500 300" width="1500" height="300"
    xmlns="http://www.w3.org/2000/svg"
    xmlns:xlink="http://www.w3.org/1999/xlink" version="1.1">
    <rect x="0" y="0" width="1500" height="300" fill="#fff7e9"></rect>
    <path d="M0 135L20.8 122C41.7 109 83.3 83 125 67.8C166.7 52.7 208.3 48.3 250 57.8C291.7 67.3 333.3 90.7 375 107.7C416.7 124.7 458.3 135.3 500 126.5C541.7 117.7 583.3 89.3 625 90.7C666.7 92 708.3 123 750 122.8C791.7 122.7 833.3 91.3 875 79.8C916.7 68.3 958.3 76.7 1000 81.8C1041.7 87 1083.3 89 1125 94.5C1166.7 100 1208.3 109 1250 122.2C1291.7 135.3 1333.3 152.7 1375 156.2C1416.7 159.7 1458.3 149.3 1479.2 144.2L1500 139L1500 301L1479.2 301C1458.3 301 1416.7 301 1375 301C1333.3 301 1291.7 301 1250 301C1208.3 301 1166.7 301 1125 301C1083.3 301 1041.7 301 1000 301C958.3 301 916.7 301 875 301C833.3 301 791.7 301 750 301C708.3 301 666.7 301 625 301C583.3 301 541.7 301 500 301C458.3 301 416.7 301 375 301C333.3 301 291.7 301 250 301C208.3 301 166.7 301 125 301C83.3 301 41.7 301 20.8 301L0 301Z" fill="#fff7e9"></path>
    <path d="M0 125L20.8 122.2C41.7 119.3 83.3 113.7 125 124.8C166.7 136 208.3 164 250 160.2C291.7 156.3 333.3 120.7 375 113.2C416.7 105.7 458.3 126.3 500 138.8C541.7 151.3 583.3 155.7 625 157.8C666.7 160 708.3 160 750 149.2C791.7 138.3 833.3 116.7 875 108.5C916.7 100.3 958.3 105.7 1000 114.2C1041.7 122.7 1083.3 134.3 1125 142.2C1166.7 150 1208.3 154 1250 143.5C1291.7 133 1333.3 108 1375 110.2C1416.7 112.3 1458.3 141.7 1479.2 156.3L1500 171L1500 301L1479.2 301C1458.3 301 1416.7 301 1375 301C1333.3 301 1291.7 301 1250 301C1208.3 301 1166.7 301 1125 301C1083.3 301 1041.7 301 1000 301C958.3 301 916.7 301 875 301C833.3 301 791.7 301 750 301C708.3 301 666.7 301 625 301C583.3 301 541.7 301 500 301C458.3 301 416.7 301 375 301C333.3 301 291.7 301 250 301C208.3 301 166.7 301 125 301C83.3 301 41.7 301 20.8 301L0 301Z" fill="#f5f2e2"></path>
    <path d="M0 188L20.8 186.7C41.7 185.3 83.3 182.7 125 179.3C166.7 176 208.3 172 250 170.7C291.7 169.3 333.3 170.7 375 173.8C416.7 177 458.3 182 500 187.7C541.7 193.3 583.3 199.7 625 193C666.7 186.3 708.3 166.7 750 157.8C791.7 149 833.3 151 875 156.3C916.7 161.7 958.3 170.3 1000 179.8C1041.7 189.3 1083.3 199.7 1125 190.5C1166.7 181.3 1208.3 152.7 1250 141.8C1291.7 131 1333.3 138 1375 149.5C1416.7 161 1458.3 177 1479.2 185L1500 193L1500 301L1479.2 301C1458.3 301 1416.7 301 1375 301C1333.3 301 1291.7 301 1250 301C1208.3 301 1166.7 301 1125 301C1083.3 301 1041.7 301 1000 301C958.3 301 916.7 301 875 301C833.3 301 791.7 301 750 301C708.3 301 666.7 301 625 301C583.3 301 541.7 301 500 301C458.3 301 416.7 301 375 301C333.3 301 291.7 301 250 301C208.3 301 166.7 301 125 301C83.3 301 41.7 301 20.8 301L0 301Z" fill="#eaeedb"></path>
    <path d="M0 222L20.8 212.8C41.7 203.7 83.3 185.3 125 177.2C166.7 169 208.3 171 250 169.5C291.7 168 333.3 163 375 170.8C416.7 178.7 458.3 199.3 500 208C541.7 216.7 583.3 213.3 625 209.3C666.7 205.3 708.3 200.7 750 199.5C791.7 198.3 833.3 200.7 875 204.7C916.7 208.7 958.3 214.3 1000 214.3C1041.7 214.3 1083.3 208.7 1125 207.8C1166.7 207 1208.3 211 1250 216.3C1291.7 221.7 1333.3 228.3 1375 223.5C1416.7 218.7 1458.3 202.3 1479.2 194.2L1500 186L1500 301L1479.2 301C1458.3 301 1416.7 301 1375 301C1333.3 301 1291.7 301 1250 301C1208.3 301 1166.7 301 1125 301C1083.3 301 1041.7 301 1000 301C958.3 301 916.7 301 875 301C833.3 301 791.7 301 750 301C708.3 301 666.7 301 625 301C583.3 301 541.7 301 500 301C458.3 301 416.7 301 375 301C333.3 301 291.7 301 250 301C208.3 301 166.7 301 125 301C83.3 301 41.7 301 20.8 301L0 301Z" fill="#deead7"></path>
    <path d="M0 252L20.8 247.2C41.7 242.3 83.3 232.7 125 227.2C166.7 221.7 208.3 220.3 250 225.7C291.7 231 333.3 243 375 245.7C416.7 248.3 458.3 241.7 500 242.2C541.7 242.7 583.3 250.3 625 250.8C666.7 251.3 708.3 244.7 750 237.7C791.7 230.7 833.3 223.3 875 218.2C916.7 213 958.3 210 1000 207.2C1041.7 204.3 1083.3 201.7 1125 206.7C1166.7 211.7 1208.3 224.3 1250 232.5C1291.7 240.7 1333.3 244.3 1375 247.8C1416.7 251.3 1458.3 254.7 1479.2 256.3L1500 258L1500 301L1479.2 301C1458.3 301 1416.7 301 1375 301C1333.3 301 1291.7 301 1250 301C1208.3 301 1166.7 301 1125 301C1083.3 301 1041.7 301 1000 301C958.3 301 916.7 301 875 301C833.3 301 791.7 301 750 301C708.3 301 666.7 301 625 301C583.3 301 541.7 301 500 301C458.3 301 416.7 301 375 301C333.3 301 291.7 301 250 301C208.3 301 166.7 301 125 301C83.3 301 41.7 301 20.8 301L0 301Z" fill="#d0e6d5"></path>
    <path d="M0 275L20.8 269C41.7 263 83.3 251 125 249C166.7 247 208.3 255 250 254.2C291.7 253.3 333.3 243.7 375 246.2C416.7 248.7 458.3 263.3 500 270.3C541.7 277.3 583.3 276.7 625 274.3C666.7 272 708.3 268 750 264.3C791.7 260.7 833.3 257.3 875 252.8C916.7 248.3 958.3 242.7 1000 241.7C1041.7 240.7 1083.3 244.3 1125 245.2C1166.7 246 1208.3 244 1250 243C1291.7 242 1333.3 242 1375 240.2C1416.7 238.3 1458.3 234.7 1479.2 232.8L1500 231L1500 301L1479.2 301C1458.3 301 1416.7 301 1375 301C1333.3 301 1291.7 301 1250 301C1208.3 301 1166.7 301 1125 301C1083.3 301 1041.7 301 1000 301C958.3 301 916.7 301 875 301C833.3 301 791.7 301 750 301C708.3 301 666.7 301 625 301C583.3 301 541.7 301 500 301C458.3 301 416.7 301 375 301C333.3 301 291.7 301 250 301C208.3 301 166.7 301 125 301C83.3 301 41.7 301 20.8 301L0 301Z" fill="#c3e2d4"></path>
</svg>