<svg id="visual" viewBox="0 0 1500 300" width="1500" height="300" xmlns="http://www.w3.org/2000/svg" xmlns:xlink="http://www.w3.org/1999/xlink" version="1.1"><rect x="0" y="0" width="1500" height="300" fill="#fff7e9"></rect><path d="M0 238L20.8 221C41.7 204 83.3 170 125 169.8C166.7 169.7 208.3 203.3 250 218.2C291.7 233 333.3 229 375 217.3C416.7 205.7 458.3 186.3 500 176.7C541.7 167 583.3 167 625 176C666.7 185 708.3 203 750 197.7C791.7 192.3 833.3 163.7 875 164.8C916.7 166 958.3 197 1000 203.5C1041.7 210 1083.3 192 1125 181C1166.7 170 1208.3 166 1250 168.3C1291.7 170.7 1333.3 179.3 1375 183.3C1416.7 187.3 1458.3 186.7 1479.2 186.3L1500 186L1500 0L1479.2 0C1458.3 0 1416.7 0 1375 0C1333.3 0 1291.7 0 1250 0C1208.3 0 1166.7 0 1125 0C1083.3 0 1041.7 0 1000 0C958.3 0 916.7 0 875 0C833.3 0 791.7 0 750 0C708.3 0 666.7 0 625 0C583.3 0 541.7 0 500 0C458.3 0 416.7 0 375 0C333.3 0 291.7 0 250 0C208.3 0 166.7 0 125 0C83.3 0 41.7 0 20.8 0L0 0Z" fill="#fff7e9"></path><path d="M0 105L20.8 113.7C41.7 122.3 83.3 139.7 125 153.2C166.7 166.7 208.3 176.3 250 184.8C291.7 193.3 333.3 200.7 375 187.7C416.7 174.7 458.3 141.3 500 133.7C541.7 126 583.3 144 625 144.7C666.7 145.3 708.3 128.7 750 120.3C791.7 112 833.3 112 875 122.7C916.7 133.3 958.3 154.7 1000 163.7C1041.7 172.7 1083.3 169.3 1125 175.8C1166.7 182.3 1208.3 198.7 1250 193C1291.7 187.3 1333.3 159.7 1375 152.3C1416.7 145 1458.3 158 1479.2 164.5L1500 171L1500 0L1479.2 0C1458.3 0 1416.7 0 1375 0C1333.3 0 1291.7 0 1250 0C1208.3 0 1166.7 0 1125 0C1083.3 0 1041.7 0 1000 0C958.3 0 916.7 0 875 0C833.3 0 791.7 0 750 0C708.3 0 666.7 0 625 0C583.3 0 541.7 0 500 0C458.3 0 416.7 0 375 0C333.3 0 291.7 0 250 0C208.3 0 166.7 0 125 0C83.3 0 41.7 0 20.8 0L0 0Z" fill="#f5f2e2"></path><path d="M0 108L20.8 115.3C41.7 122.7 83.3 137.3 125 143.5C166.7 149.7 208.3 147.3 250 146.3C291.7 145.3 333.3 145.7 375 138.5C416.7 131.3 458.3 116.7 500 112.3C541.7 108 583.3 114 625 124.2C666.7 134.3 708.3 148.7 750 157.5C791.7 166.3 833.3 169.7 875 159C916.7 148.3 958.3 123.7 1000 124.5C1041.7 125.3 1083.3 151.7 1125 165.3C1166.7 179 1208.3 180 1250 168.2C1291.7 156.3 1333.3 131.7 1375 130.5C1416.7 129.3 1458.3 151.7 1479.2 162.8L1500 174L1500 0L1479.2 0C1458.3 0 1416.7 0 1375 0C1333.3 0 1291.7 0 1250 0C1208.3 0 1166.7 0 1125 0C1083.3 0 1041.7 0 1000 0C958.3 0 916.7 0 875 0C833.3 0 791.7 0 750 0C708.3 0 666.7 0 625 0C583.3 0 541.7 0 500 0C458.3 0 416.7 0 375 0C333.3 0 291.7 0 250 0C208.3 0 166.7 0 125 0C83.3 0 41.7 0 20.8 0L0 0Z" fill="#eaeedb"></path><path d="M0 71L20.8 71.3C41.7 71.7 83.3 72.3 125 81.3C166.7 90.3 208.3 107.7 250 117C291.7 126.3 333.3 127.7 375 120.2C416.7 112.7 458.3 96.3 500 93.3C541.7 90.3 583.3 100.7 625 106C666.7 111.3 708.3 111.7 750 103.5C791.7 95.3 833.3 78.7 875 73.5C916.7 68.3 958.3 74.7 1000 75.5C1041.7 76.3 1083.3 71.7 1125 78C1166.7 84.3 1208.3 101.7 1250 105.5C1291.7 109.3 1333.3 99.7 1375 92C1416.7 84.3 1458.3 78.7 1479.2 75.8L1500 73L1500 0L1479.2 0C1458.3 0 1416.7 0 1375 0C1333.3 0 1291.7 0 1250 0C1208.3 0 1166.7 0 1125 0C1083.3 0 1041.7 0 1000 0C958.3 0 916.7 0 875 0C833.3 0 791.7 0 750 0C708.3 0 666.7 0 625 0C583.3 0 541.7 0 500 0C458.3 0 416.7 0 375 0C333.3 0 291.7 0 250 0C208.3 0 166.7 0 125 0C83.3 0 41.7 0 20.8 0L0 0Z" fill="#deead7"></path><path d="M0 69L20.8 70.2C41.7 71.3 83.3 73.7 125 73.2C166.7 72.7 208.3 69.3 250 72.8C291.7 76.3 333.3 86.7 375 93C416.7 99.3 458.3 101.7 500 97.5C541.7 93.3 583.3 82.7 625 79.3C666.7 76 708.3 80 750 84.3C791.7 88.7 833.3 93.3 875 92.8C916.7 92.3 958.3 86.7 1000 83.3C1041.7 80 1083.3 79 1125 77.5C1166.7 76 1208.3 74 1250 77.5C1291.7 81 1333.3 90 1375 92.7C1416.7 95.3 1458.3 91.7 1479.2 89.8L1500 88L1500 0L1479.2 0C1458.3 0 1416.7 0 1375 0C1333.3 0 1291.7 0 1250 0C1208.3 0 1166.7 0 1125 0C1083.3 0 1041.7 0 1000 0C958.3 0 916.7 0 875 0C833.3 0 791.7 0 750 0C708.3 0 666.7 0 625 0C583.3 0 541.7 0 500 0C458.3 0 416.7 0 375 0C333.3 0 291.7 0 250 0C208.3 0 166.7 0 125 0C83.3 0 41.7 0 20.8 0L0 0Z" fill="#d0e6d5"></path><path d="M0 37L20.8 37C41.7 37 83.3 37 125 40C166.7 43 208.3 49 250 49.8C291.7 50.7 333.3 46.3 375 44C416.7 41.7 458.3 41.3 500 43.8C541.7 46.3 583.3 51.7 625 48C666.7 44.3 708.3 31.7 750 26.8C791.7 22 833.3 25 875 26.7C916.7 28.3 958.3 28.7 1000 28.7C1041.7 28.7 1083.3 28.3 1125 29.8C1166.7 31.3 1208.3 34.7 1250 35.5C1291.7 36.3 1333.3 34.7 1375 33.7C1416.7 32.7 1458.3 32.3 1479.2 32.2L1500 32L1500 0L1479.2 0C1458.3 0 1416.7 0 1375 0C1333.3 0 1291.7 0 1250 0C1208.3 0 1166.7 0 1125 0C1083.3 0 1041.7 0 1000 0C958.3 0 916.7 0 875 0C833.3 0 791.7 0 750 0C708.3 0 666.7 0 625 0C583.3 0 541.7 0 500 0C458.3 0 416.7 0 375 0C333.3 0 291.7 0 250 0C208.3 0 166.7 0 125 0C83.3 0 41.7 0 20.8 0L0 0Z" fill="#c3e2d4"></path></svg>