<svg id="visual" viewBox="0 0 960 300" width="960" height="300" xmlns="http://www.w3.org/2000/svg" xmlns:xlink="http://www.w3.org/1999/xlink" version="1.1"><rect x="0" y="0" width="960" height="300" fill="#FFF7E9"></rect><path d="M0 227L12.3 223.2C24.7 219.3 49.3 211.7 74 207C98.7 202.3 123.3 200.7 148 192.8C172.7 185 197.3 171 221.8 167C246.3 163 270.7 169 295.2 169.2C319.7 169.3 344.3 163.7 369 168.5C393.7 173.3 418.3 188.7 443 199.7C467.7 210.7 492.3 217.3 517 204.3C541.7 191.3 566.3 158.7 591 147.5C615.7 136.3 640.3 146.7 664.8 153C689.3 159.3 713.7 161.7 738.2 165.2C762.7 168.7 787.3 173.3 812 181.2C836.7 189 861.3 200 886 204.5C910.7 209 935.3 207 947.7 206L960 205L960 0L947.7 0C935.3 0 910.7 0 886 0C861.3 0 836.7 0 812 0C787.3 0 762.7 0 738.2 0C713.7 0 689.3 0 664.8 0C640.3 0 615.7 0 591 0C566.3 0 541.7 0 517 0C492.3 0 467.7 0 443 0C418.3 0 393.7 0 369 0C344.3 0 319.7 0 295.2 0C270.7 0 246.3 0 221.8 0C197.3 0 172.7 0 148 0C123.3 0 98.7 0 74 0C49.3 0 24.7 0 12.3 0L0 0Z" fill="#fff7e9"></path><path d="M0 165L12.3 168.3C24.7 171.7 49.3 178.3 74 180.7C98.7 183 123.3 181 148 170.8C172.7 160.7 197.3 142.3 221.8 134.3C246.3 126.3 270.7 128.7 295.2 123.5C319.7 118.3 344.3 105.7 369 116C393.7 126.3 418.3 159.7 443 160.3C467.7 161 492.3 129 517 121.7C541.7 114.3 566.3 131.7 591 135.3C615.7 139 640.3 129 664.8 126.7C689.3 124.3 713.7 129.7 738.2 132.7C762.7 135.7 787.3 136.3 812 133.8C836.7 131.3 861.3 125.7 886 122.7C910.7 119.7 935.3 119.3 947.7 119.2L960 119L960 0L947.7 0C935.3 0 910.7 0 886 0C861.3 0 836.7 0 812 0C787.3 0 762.7 0 738.2 0C713.7 0 689.3 0 664.8 0C640.3 0 615.7 0 591 0C566.3 0 541.7 0 517 0C492.3 0 467.7 0 443 0C418.3 0 393.7 0 369 0C344.3 0 319.7 0 295.2 0C270.7 0 246.3 0 221.8 0C197.3 0 172.7 0 148 0C123.3 0 98.7 0 74 0C49.3 0 24.7 0 12.3 0L0 0Z" fill="#eef0dd"></path><path d="M0 74L12.3 73.2C24.7 72.3 49.3 70.7 74 76.8C98.7 83 123.3 97 148 103.5C172.7 110 197.3 109 221.8 102.7C246.3 96.3 270.7 84.7 295.2 76.3C319.7 68 344.3 63 369 72.3C393.7 81.7 418.3 105.3 443 112.8C467.7 120.3 492.3 111.7 517 114.5C541.7 117.3 566.3 131.7 591 132.5C615.7 133.3 640.3 120.7 664.8 109.7C689.3 98.7 713.7 89.3 738.2 94C762.7 98.7 787.3 117.3 812 128.2C836.7 139 861.3 142 886 140C910.7 138 935.3 131 947.7 127.5L960 124L960 0L947.7 0C935.3 0 910.7 0 886 0C861.3 0 836.7 0 812 0C787.3 0 762.7 0 738.2 0C713.7 0 689.3 0 664.8 0C640.3 0 615.7 0 591 0C566.3 0 541.7 0 517 0C492.3 0 467.7 0 443 0C418.3 0 393.7 0 369 0C344.3 0 319.7 0 295.2 0C270.7 0 246.3 0 221.8 0C197.3 0 172.7 0 148 0C123.3 0 98.7 0 74 0C49.3 0 24.7 0 12.3 0L0 0Z" fill="#d9e9d6"></path><path d="M0 85L12.3 83.2C24.7 81.3 49.3 77.7 74 73.8C98.7 70 123.3 66 148 59.7C172.7 53.3 197.3 44.7 221.8 48C246.3 51.3 270.7 66.7 295.2 70.5C319.7 74.3 344.3 66.7 369 60.5C393.7 54.3 418.3 49.7 443 50.2C467.7 50.7 492.3 56.3 517 60.5C541.7 64.7 566.3 67.3 591 71.7C615.7 76 640.3 82 664.8 81.5C689.3 81 713.7 74 738.2 70.8C762.7 67.7 787.3 68.3 812 62.3C836.7 56.3 861.3 43.7 886 36.3C910.7 29 935.3 27 947.7 26L960 25L960 0L947.7 0C935.3 0 910.7 0 886 0C861.3 0 836.7 0 812 0C787.3 0 762.7 0 738.2 0C713.7 0 689.3 0 664.8 0C640.3 0 615.7 0 591 0C566.3 0 541.7 0 517 0C492.3 0 467.7 0 443 0C418.3 0 393.7 0 369 0C344.3 0 319.7 0 295.2 0C270.7 0 246.3 0 221.8 0C197.3 0 172.7 0 148 0C123.3 0 98.7 0 74 0C49.3 0 24.7 0 12.3 0L0 0Z" fill="#c3e2d4"></path></svg>