<svg id="visual" viewBox="0 0 1500 300" width="1500" height="300" xmlns="http://www.w3.org/2000/svg" xmlns:xlink="http://www.w3.org/1999/xlink" version="1.1"><rect x="0" y="0" width="1500" height="300" fill="#fff7e9"></rect><path d="M0 145L20.8 130.5C41.7 116 83.3 87 125 81.7C166.7 76.3 208.3 94.7 250 99.2C291.7 103.7 333.3 94.3 375 86.3C416.7 78.3 458.3 71.7 500 81.5C541.7 91.3 583.3 117.7 625 123C666.7 128.3 708.3 112.7 750 99.3C791.7 86 833.3 75 875 73.2C916.7 71.3 958.3 78.7 1000 85C1041.7 91.3 1083.3 96.7 1125 107.3C1166.7 118 1208.3 134 1250 132.8C1291.7 131.7 1333.3 113.3 1375 97C1416.7 80.7 1458.3 66.3 1479.2 59.2L1500 52L1500 301L1479.2 301C1458.3 301 1416.7 301 1375 301C1333.3 301 1291.7 301 1250 301C1208.3 301 1166.7 301 1125 301C1083.3 301 1041.7 301 1000 301C958.3 301 916.7 301 875 301C833.3 301 791.7 301 750 301C708.3 301 666.7 301 625 301C583.3 301 541.7 301 500 301C458.3 301 416.7 301 375 301C333.3 301 291.7 301 250 301C208.3 301 166.7 301 125 301C83.3 301 41.7 301 20.8 301L0 301Z" fill="#fff7e9"></path><path d="M0 92L20.8 102.7C41.7 113.3 83.3 134.7 125 134.8C166.7 135 208.3 114 250 107.8C291.7 101.7 333.3 110.3 375 122.7C416.7 135 458.3 151 500 144.7C541.7 138.3 583.3 109.7 625 102C666.7 94.3 708.3 107.7 750 122C791.7 136.3 833.3 151.7 875 146.7C916.7 141.7 958.3 116.3 1000 108.8C1041.7 101.3 1083.3 111.7 1125 116C1166.7 120.3 1208.3 118.7 1250 126.7C1291.7 134.7 1333.3 152.3 1375 156.5C1416.7 160.7 1458.3 151.3 1479.2 146.7L1500 142L1500 301L1479.2 301C1458.3 301 1416.7 301 1375 301C1333.3 301 1291.7 301 1250 301C1208.3 301 1166.7 301 1125 301C1083.3 301 1041.7 301 1000 301C958.3 301 916.7 301 875 301C833.3 301 791.7 301 750 301C708.3 301 666.7 301 625 301C583.3 301 541.7 301 500 301C458.3 301 416.7 301 375 301C333.3 301 291.7 301 250 301C208.3 301 166.7 301 125 301C83.3 301 41.7 301 20.8 301L0 301Z" fill="#f5f2e2"></path><path d="M0 197L20.8 194.3C41.7 191.7 83.3 186.3 125 182.7C166.7 179 208.3 177 250 172.5C291.7 168 333.3 161 375 155.3C416.7 149.7 458.3 145.3 500 153.8C541.7 162.3 583.3 183.7 625 192.8C666.7 202 708.3 199 750 186.7C791.7 174.3 833.3 152.7 875 150.7C916.7 148.7 958.3 166.3 1000 170.2C1041.7 174 1083.3 164 1125 167.7C1166.7 171.3 1208.3 188.7 1250 192C1291.7 195.3 1333.3 184.7 1375 179.3C1416.7 174 1458.3 174 1479.2 174L1500 174L1500 301L1479.2 301C1458.3 301 1416.7 301 1375 301C1333.3 301 1291.7 301 1250 301C1208.3 301 1166.7 301 1125 301C1083.3 301 1041.7 301 1000 301C958.3 301 916.7 301 875 301C833.3 301 791.7 301 750 301C708.3 301 666.7 301 625 301C583.3 301 541.7 301 500 301C458.3 301 416.7 301 375 301C333.3 301 291.7 301 250 301C208.3 301 166.7 301 125 301C83.3 301 41.7 301 20.8 301L0 301Z" fill="#eaeedb"></path><path d="M0 184L20.8 190.7C41.7 197.3 83.3 210.7 125 206.3C166.7 202 208.3 180 250 170.2C291.7 160.3 333.3 162.7 375 174.8C416.7 187 458.3 209 500 211.7C541.7 214.3 583.3 197.7 625 194C666.7 190.3 708.3 199.7 750 203.5C791.7 207.3 833.3 205.7 875 207.8C916.7 210 958.3 216 1000 209.7C1041.7 203.3 1083.3 184.7 1125 182C1166.7 179.3 1208.3 192.7 1250 192.7C1291.7 192.7 1333.3 179.3 1375 174.3C1416.7 169.3 1458.3 172.7 1479.2 174.3L1500 176L1500 301L1479.2 301C1458.3 301 1416.7 301 1375 301C1333.3 301 1291.7 301 1250 301C1208.3 301 1166.7 301 1125 301C1083.3 301 1041.7 301 1000 301C958.3 301 916.7 301 875 301C833.3 301 791.7 301 750 301C708.3 301 666.7 301 625 301C583.3 301 541.7 301 500 301C458.3 301 416.7 301 375 301C333.3 301 291.7 301 250 301C208.3 301 166.7 301 125 301C83.3 301 41.7 301 20.8 301L0 301Z" fill="#deead7"></path><path d="M0 235L20.8 236.2C41.7 237.3 83.3 239.7 125 242.3C166.7 245 208.3 248 250 250.3C291.7 252.7 333.3 254.3 375 253.2C416.7 252 458.3 248 500 247.3C541.7 246.7 583.3 249.3 625 248.5C666.7 247.7 708.3 243.3 750 240.2C791.7 237 833.3 235 875 235.2C916.7 235.3 958.3 237.7 1000 239.5C1041.7 241.3 1083.3 242.7 1125 237.5C1166.7 232.3 1208.3 220.7 1250 215.5C1291.7 210.3 1333.3 211.7 1375 219.8C1416.7 228 1458.3 243 1479.2 250.5L1500 258L1500 301L1479.2 301C1458.3 301 1416.7 301 1375 301C1333.3 301 1291.7 301 1250 301C1208.3 301 1166.7 301 1125 301C1083.3 301 1041.7 301 1000 301C958.3 301 916.7 301 875 301C833.3 301 791.7 301 750 301C708.3 301 666.7 301 625 301C583.3 301 541.7 301 500 301C458.3 301 416.7 301 375 301C333.3 301 291.7 301 250 301C208.3 301 166.7 301 125 301C83.3 301 41.7 301 20.8 301L0 301Z" fill="#d0e6d5"></path><path d="M0 240L20.8 243C41.7 246 83.3 252 125 251.5C166.7 251 208.3 244 250 245.3C291.7 246.7 333.3 256.3 375 256.2C416.7 256 458.3 246 500 247.5C541.7 249 583.3 262 625 264.3C666.7 266.7 708.3 258.3 750 257C791.7 255.7 833.3 261.3 875 265C916.7 268.7 958.3 270.3 1000 265.3C1041.7 260.3 1083.3 248.7 1125 246.3C1166.7 244 1208.3 251 1250 254C1291.7 257 1333.3 256 1375 254.7C1416.7 253.3 1458.3 251.7 1479.2 250.8L1500 250L1500 301L1479.2 301C1458.3 301 1416.7 301 1375 301C1333.3 301 1291.7 301 1250 301C1208.3 301 1166.7 301 1125 301C1083.3 301 1041.7 301 1000 301C958.3 301 916.7 301 875 301C833.3 301 791.7 301 750 301C708.3 301 666.7 301 625 301C583.3 301 541.7 301 500 301C458.3 301 416.7 301 375 301C333.3 301 291.7 301 250 301C208.3 301 166.7 301 125 301C83.3 301 41.7 301 20.8 301L0 301Z" fill="#c3e2d4"></path></svg>