<svg id="visual" viewBox="0 0 960 300" width="960" height="300" xmlns="http://www.w3.org/2000/svg" xmlns:xlink="http://www.w3.org/1999/xlink" version="1.1"><rect x="0" y="0" width="960" height="300" fill="#FFF7E9"></rect><path d="M0 140L12.3 139.7C24.7 139.3 49.3 138.7 74 129.5C98.7 120.3 123.3 102.7 148 94.2C172.7 85.7 197.3 86.3 221.8 93C246.3 99.7 270.7 112.3 295.2 121.8C319.7 131.3 344.3 137.7 369 145.8C393.7 154 418.3 164 443 161.8C467.7 159.7 492.3 145.3 517 139C541.7 132.7 566.3 134.3 591 132.7C615.7 131 640.3 126 664.8 127.7C689.3 129.3 713.7 137.7 738.2 143C762.7 148.3 787.3 150.7 812 149.7C836.7 148.7 861.3 144.3 886 128.7C910.7 113 935.3 86 947.7 72.5L960 59L960 301L947.7 301C935.3 301 910.7 301 886 301C861.3 301 836.7 301 812 301C787.3 301 762.7 301 738.2 301C713.7 301 689.3 301 664.8 301C640.3 301 615.7 301 591 301C566.3 301 541.7 301 517 301C492.3 301 467.7 301 443 301C418.3 301 393.7 301 369 301C344.3 301 319.7 301 295.2 301C270.7 301 246.3 301 221.8 301C197.3 301 172.7 301 148 301C123.3 301 98.7 301 74 301C49.3 301 24.7 301 12.3 301L0 301Z" fill="#fff7e9"></path><path d="M0 179L12.3 183.8C24.7 188.7 49.3 198.3 74 192.7C98.7 187 123.3 166 148 165C172.7 164 197.3 183 221.8 182.2C246.3 181.3 270.7 160.7 295.2 151.2C319.7 141.7 344.3 143.3 369 150.2C393.7 157 418.3 169 443 163C467.7 157 492.3 133 517 125.8C541.7 118.7 566.3 128.3 591 133C615.7 137.7 640.3 137.3 664.8 136C689.3 134.7 713.7 132.3 738.2 130.8C762.7 129.3 787.3 128.7 812 125.7C836.7 122.7 861.3 117.3 886 113C910.7 108.7 935.3 105.3 947.7 103.7L960 102L960 301L947.7 301C935.3 301 910.7 301 886 301C861.3 301 836.7 301 812 301C787.3 301 762.7 301 738.2 301C713.7 301 689.3 301 664.8 301C640.3 301 615.7 301 591 301C566.3 301 541.7 301 517 301C492.3 301 467.7 301 443 301C418.3 301 393.7 301 369 301C344.3 301 319.7 301 295.2 301C270.7 301 246.3 301 221.8 301C197.3 301 172.7 301 148 301C123.3 301 98.7 301 74 301C49.3 301 24.7 301 12.3 301L0 301Z" fill="#eef0dd"></path><path d="M0 164L12.3 166.7C24.7 169.3 49.3 174.7 74 175C98.7 175.3 123.3 170.7 148 172.7C172.7 174.7 197.3 183.3 221.8 193.7C246.3 204 270.7 216 295.2 216.2C319.7 216.3 344.3 204.7 369 202.3C393.7 200 418.3 207 443 209.5C467.7 212 492.3 210 517 206.2C541.7 202.3 566.3 196.7 591 188.8C615.7 181 640.3 171 664.8 168.3C689.3 165.7 713.7 170.3 738.2 169C762.7 167.7 787.3 160.3 812 166.2C836.7 172 861.3 191 886 202.7C910.7 214.3 935.3 218.7 947.7 220.8L960 223L960 301L947.7 301C935.3 301 910.7 301 886 301C861.3 301 836.7 301 812 301C787.3 301 762.7 301 738.2 301C713.7 301 689.3 301 664.8 301C640.3 301 615.7 301 591 301C566.3 301 541.7 301 517 301C492.3 301 467.7 301 443 301C418.3 301 393.7 301 369 301C344.3 301 319.7 301 295.2 301C270.7 301 246.3 301 221.8 301C197.3 301 172.7 301 148 301C123.3 301 98.7 301 74 301C49.3 301 24.7 301 12.3 301L0 301Z" fill="#d9e9d6"></path><path d="M0 257L12.3 255.3C24.7 253.7 49.3 250.3 74 243.3C98.7 236.3 123.3 225.7 148 225C172.7 224.3 197.3 233.7 221.8 233.8C246.3 234 270.7 225 295.2 220C319.7 215 344.3 214 369 219.2C393.7 224.3 418.3 235.7 443 239C467.7 242.3 492.3 237.7 517 233.5C541.7 229.3 566.3 225.7 591 227.7C615.7 229.7 640.3 237.3 664.8 240C689.3 242.7 713.7 240.3 738.2 238.7C762.7 237 787.3 236 812 236.7C836.7 237.3 861.3 239.7 886 239.7C910.7 239.7 935.3 237.3 947.7 236.2L960 235L960 301L947.7 301C935.3 301 910.7 301 886 301C861.3 301 836.7 301 812 301C787.3 301 762.7 301 738.2 301C713.7 301 689.3 301 664.8 301C640.3 301 615.7 301 591 301C566.3 301 541.7 301 517 301C492.3 301 467.7 301 443 301C418.3 301 393.7 301 369 301C344.3 301 319.7 301 295.2 301C270.7 301 246.3 301 221.8 301C197.3 301 172.7 301 148 301C123.3 301 98.7 301 74 301C49.3 301 24.7 301 12.3 301L0 301Z" fill="#c3e2d4"></path></svg>