<svg id="visual" viewBox="0 0 1500 300" width="1500" height="300" xmlns="http://www.w3.org/2000/svg" xmlns:xlink="http://www.w3.org/1999/xlink" version="1.1"><rect x="0" y="0" width="1500" height="300" fill="#fff7e9"></rect><path d="M0 141L20.8 158.7C41.7 176.3 83.3 211.7 125 221C166.7 230.3 208.3 213.7 250 196C291.7 178.3 333.3 159.7 375 149.5C416.7 139.3 458.3 137.7 500 149.5C541.7 161.3 583.3 186.7 625 203.5C666.7 220.3 708.3 228.7 750 234.8C791.7 241 833.3 245 875 231.7C916.7 218.3 958.3 187.7 1000 169.2C1041.7 150.7 1083.3 144.3 1125 158.5C1166.7 172.7 1208.3 207.3 1250 214.8C1291.7 222.3 1333.3 202.7 1375 200.5C1416.7 198.3 1458.3 213.7 1479.2 221.3L1500 229L1500 0L1479.2 0C1458.3 0 1416.7 0 1375 0C1333.3 0 1291.7 0 1250 0C1208.3 0 1166.7 0 1125 0C1083.3 0 1041.7 0 1000 0C958.3 0 916.7 0 875 0C833.3 0 791.7 0 750 0C708.3 0 666.7 0 625 0C583.3 0 541.7 0 500 0C458.3 0 416.7 0 375 0C333.3 0 291.7 0 250 0C208.3 0 166.7 0 125 0C83.3 0 41.7 0 20.8 0L0 0Z" fill="#fff7e9"></path><path d="M0 141L20.8 139.2C41.7 137.3 83.3 133.7 125 146.5C166.7 159.3 208.3 188.7 250 197.5C291.7 206.3 333.3 194.7 375 186.3C416.7 178 458.3 173 500 164.3C541.7 155.7 583.3 143.3 625 141.8C666.7 140.3 708.3 149.7 750 154.7C791.7 159.7 833.3 160.3 875 157C916.7 153.7 958.3 146.3 1000 145.2C1041.7 144 1083.3 149 1125 158.7C1166.7 168.3 1208.3 182.7 1250 184C1291.7 185.3 1333.3 173.7 1375 169.5C1416.7 165.3 1458.3 168.7 1479.2 170.3L1500 172L1500 0L1479.2 0C1458.3 0 1416.7 0 1375 0C1333.3 0 1291.7 0 1250 0C1208.3 0 1166.7 0 1125 0C1083.3 0 1041.7 0 1000 0C958.3 0 916.7 0 875 0C833.3 0 791.7 0 750 0C708.3 0 666.7 0 625 0C583.3 0 541.7 0 500 0C458.3 0 416.7 0 375 0C333.3 0 291.7 0 250 0C208.3 0 166.7 0 125 0C83.3 0 41.7 0 20.8 0L0 0Z" fill="#f5f2e2"></path><path d="M0 134L20.8 126.8C41.7 119.7 83.3 105.3 125 107.5C166.7 109.7 208.3 128.3 250 133.8C291.7 139.3 333.3 131.7 375 136C416.7 140.3 458.3 156.7 500 155.8C541.7 155 583.3 137 625 123.3C666.7 109.7 708.3 100.3 750 102.8C791.7 105.3 833.3 119.7 875 134.3C916.7 149 958.3 164 1000 165.5C1041.7 167 1083.3 155 1125 141.5C1166.7 128 1208.3 113 1250 109.7C1291.7 106.3 1333.3 114.7 1375 126.7C1416.7 138.7 1458.3 154.3 1479.2 162.2L1500 170L1500 0L1479.2 0C1458.3 0 1416.7 0 1375 0C1333.3 0 1291.7 0 1250 0C1208.3 0 1166.7 0 1125 0C1083.3 0 1041.7 0 1000 0C958.3 0 916.7 0 875 0C833.3 0 791.7 0 750 0C708.3 0 666.7 0 625 0C583.3 0 541.7 0 500 0C458.3 0 416.7 0 375 0C333.3 0 291.7 0 250 0C208.3 0 166.7 0 125 0C83.3 0 41.7 0 20.8 0L0 0Z" fill="#eaeedb"></path><path d="M0 131L20.8 130.2C41.7 129.3 83.3 127.7 125 116.2C166.7 104.7 208.3 83.3 250 85.2C291.7 87 333.3 112 375 114.8C416.7 117.7 458.3 98.3 500 96.2C541.7 94 583.3 109 625 106.5C666.7 104 708.3 84 750 77C791.7 70 833.3 76 875 76.5C916.7 77 958.3 72 1000 80.8C1041.7 89.7 1083.3 112.3 1125 123.8C1166.7 135.3 1208.3 135.7 1250 125.5C1291.7 115.3 1333.3 94.7 1375 95.7C1416.7 96.7 1458.3 119.3 1479.2 130.7L1500 142L1500 0L1479.2 0C1458.3 0 1416.7 0 1375 0C1333.3 0 1291.7 0 1250 0C1208.3 0 1166.7 0 1125 0C1083.3 0 1041.7 0 1000 0C958.3 0 916.7 0 875 0C833.3 0 791.7 0 750 0C708.3 0 666.7 0 625 0C583.3 0 541.7 0 500 0C458.3 0 416.7 0 375 0C333.3 0 291.7 0 250 0C208.3 0 166.7 0 125 0C83.3 0 41.7 0 20.8 0L0 0Z" fill="#deead7"></path><path d="M0 66L20.8 69.2C41.7 72.3 83.3 78.7 125 79.8C166.7 81 208.3 77 250 77.7C291.7 78.3 333.3 83.7 375 78.5C416.7 73.3 458.3 57.7 500 52.3C541.7 47 583.3 52 625 53.7C666.7 55.3 708.3 53.7 750 51.2C791.7 48.7 833.3 45.3 875 53.3C916.7 61.3 958.3 80.7 1000 84C1041.7 87.3 1083.3 74.7 1125 73C1166.7 71.3 1208.3 80.7 1250 86.3C1291.7 92 1333.3 94 1375 89C1416.7 84 1458.3 72 1479.2 66L1500 60L1500 0L1479.2 0C1458.3 0 1416.7 0 1375 0C1333.3 0 1291.7 0 1250 0C1208.3 0 1166.7 0 1125 0C1083.3 0 1041.7 0 1000 0C958.3 0 916.7 0 875 0C833.3 0 791.7 0 750 0C708.3 0 666.7 0 625 0C583.3 0 541.7 0 500 0C458.3 0 416.7 0 375 0C333.3 0 291.7 0 250 0C208.3 0 166.7 0 125 0C83.3 0 41.7 0 20.8 0L0 0Z" fill="#d0e6d5"></path><path d="M0 20L20.8 26.8C41.7 33.7 83.3 47.3 125 52.3C166.7 57.3 208.3 53.7 250 48C291.7 42.3 333.3 34.7 375 33.5C416.7 32.3 458.3 37.7 500 44C541.7 50.3 583.3 57.7 625 59.8C666.7 62 708.3 59 750 58.5C791.7 58 833.3 60 875 59.5C916.7 59 958.3 56 1000 55C1041.7 54 1083.3 55 1125 52.2C1166.7 49.3 1208.3 42.7 1250 43.2C1291.7 43.7 1333.3 51.3 1375 53.7C1416.7 56 1458.3 53 1479.2 51.5L1500 50L1500 0L1479.2 0C1458.3 0 1416.7 0 1375 0C1333.3 0 1291.7 0 1250 0C1208.3 0 1166.7 0 1125 0C1083.3 0 1041.7 0 1000 0C958.3 0 916.7 0 875 0C833.3 0 791.7 0 750 0C708.3 0 666.7 0 625 0C583.3 0 541.7 0 500 0C458.3 0 416.7 0 375 0C333.3 0 291.7 0 250 0C208.3 0 166.7 0 125 0C83.3 0 41.7 0 20.8 0L0 0Z" fill="#c3e2d4"></path></svg>