<svg id="visual" viewBox="0 0 960 300" width="960" height="300" xmlns="http://www.w3.org/2000/svg" xmlns:xlink="http://www.w3.org/1999/xlink" version="1.1"><rect x="0" y="0" width="960" height="300" fill="#c3e2d4"></rect><path d="M0 196L13.3 190.3C26.7 184.7 53.3 173.3 80 170.5C106.7 167.7 133.3 173.3 160 178.5C186.7 183.7 213.3 188.3 240 189.5C266.7 190.7 293.3 188.3 320 189.2C346.7 190 373.3 194 400 196.2C426.7 198.3 453.3 198.7 480 193.3C506.7 188 533.3 177 560 174.8C586.7 172.7 613.3 179.3 640 182C666.7 184.7 693.3 183.3 720 181.2C746.7 179 773.3 176 800 179.3C826.7 182.7 853.3 192.3 880 197.7C906.7 203 933.3 204 946.7 204.5L960 205L960 0L946.7 0C933.3 0 906.7 0 880 0C853.3 0 826.7 0 800 0C773.3 0 746.7 0 720 0C693.3 0 666.7 0 640 0C613.3 0 586.7 0 560 0C533.3 0 506.7 0 480 0C453.3 0 426.7 0 400 0C373.3 0 346.7 0 320 0C293.3 0 266.7 0 240 0C213.3 0 186.7 0 160 0C133.3 0 106.7 0 80 0C53.3 0 26.7 0 13.3 0L0 0Z" fill="#c3e2d4"></path><path d="M0 138L13.3 143.2C26.7 148.3 53.3 158.7 80 165.5C106.7 172.3 133.3 175.7 160 175.8C186.7 176 213.3 173 240 167.3C266.7 161.7 293.3 153.3 320 147.5C346.7 141.7 373.3 138.3 400 141.5C426.7 144.7 453.3 154.3 480 156.3C506.7 158.3 533.3 152.7 560 150.3C586.7 148 613.3 149 640 154.5C666.7 160 693.3 170 720 172.5C746.7 175 773.3 170 800 164.7C826.7 159.3 853.3 153.7 880 155.2C906.7 156.7 933.3 165.3 946.7 169.7L960 174L960 0L946.7 0C933.3 0 906.7 0 880 0C853.3 0 826.7 0 800 0C773.3 0 746.7 0 720 0C693.3 0 666.7 0 640 0C613.3 0 586.7 0 560 0C533.3 0 506.7 0 480 0C453.3 0 426.7 0 400 0C373.3 0 346.7 0 320 0C293.3 0 266.7 0 240 0C213.3 0 186.7 0 160 0C133.3 0 106.7 0 80 0C53.3 0 26.7 0 13.3 0L0 0Z" fill="#d0e6d5"></path><path d="M0 137L13.3 134.7C26.7 132.3 53.3 127.7 80 124C106.7 120.3 133.3 117.7 160 115.7C186.7 113.7 213.3 112.3 240 114C266.7 115.7 293.3 120.3 320 121.5C346.7 122.7 373.3 120.3 400 119.7C426.7 119 453.3 120 480 123C506.7 126 533.3 131 560 130.8C586.7 130.7 613.3 125.3 640 127C666.7 128.7 693.3 137.3 720 135.7C746.7 134 773.3 122 800 119C826.7 116 853.3 122 880 122.8C906.7 123.7 933.3 119.3 946.7 117.2L960 115L960 0L946.7 0C933.3 0 906.7 0 880 0C853.3 0 826.7 0 800 0C773.3 0 746.7 0 720 0C693.3 0 666.7 0 640 0C613.3 0 586.7 0 560 0C533.3 0 506.7 0 480 0C453.3 0 426.7 0 400 0C373.3 0 346.7 0 320 0C293.3 0 266.7 0 240 0C213.3 0 186.7 0 160 0C133.3 0 106.7 0 80 0C53.3 0 26.7 0 13.3 0L0 0Z" fill="#deead7"></path><path d="M0 104L13.3 105.5C26.7 107 53.3 110 80 108.7C106.7 107.3 133.3 101.7 160 101.3C186.7 101 213.3 106 240 104.5C266.7 103 293.3 95 320 90C346.7 85 373.3 83 400 87.5C426.7 92 453.3 103 480 102.2C506.7 101.3 533.3 88.7 560 88.5C586.7 88.3 613.3 100.7 640 101.7C666.7 102.7 693.3 92.3 720 87.7C746.7 83 773.3 84 800 85C826.7 86 853.3 87 880 87.8C906.7 88.7 933.3 89.3 946.7 89.7L960 90L960 0L946.7 0C933.3 0 906.7 0 880 0C853.3 0 826.7 0 800 0C773.3 0 746.7 0 720 0C693.3 0 666.7 0 640 0C613.3 0 586.7 0 560 0C533.3 0 506.7 0 480 0C453.3 0 426.7 0 400 0C373.3 0 346.7 0 320 0C293.3 0 266.7 0 240 0C213.3 0 186.7 0 160 0C133.3 0 106.7 0 80 0C53.3 0 26.7 0 13.3 0L0 0Z" fill="#eaeedb"></path><path d="M0 75L13.3 73.3C26.7 71.7 53.3 68.3 80 68.3C106.7 68.3 133.3 71.7 160 69.7C186.7 67.7 213.3 60.3 240 61.3C266.7 62.3 293.3 71.7 320 72.2C346.7 72.7 373.3 64.3 400 62.3C426.7 60.3 453.3 64.7 480 67.3C506.7 70 533.3 71 560 70C586.7 69 613.3 66 640 62.2C666.7 58.3 693.3 53.7 720 56.7C746.7 59.7 773.3 70.3 800 73.3C826.7 76.3 853.3 71.7 880 67.7C906.7 63.7 933.3 60.3 946.7 58.7L960 57L960 0L946.7 0C933.3 0 906.7 0 880 0C853.3 0 826.7 0 800 0C773.3 0 746.7 0 720 0C693.3 0 666.7 0 640 0C613.3 0 586.7 0 560 0C533.3 0 506.7 0 480 0C453.3 0 426.7 0 400 0C373.3 0 346.7 0 320 0C293.3 0 266.7 0 240 0C213.3 0 186.7 0 160 0C133.3 0 106.7 0 80 0C53.3 0 26.7 0 13.3 0L0 0Z" fill="#f5f2e2"></path><path d="M0 35L13.3 37C26.7 39 53.3 43 80 42.7C106.7 42.3 133.3 37.7 160 33.2C186.7 28.7 213.3 24.3 240 26.8C266.7 29.3 293.3 38.7 320 42.5C346.7 46.3 373.3 44.7 400 40.3C426.7 36 453.3 29 480 29.7C506.7 30.3 533.3 38.7 560 39.3C586.7 40 613.3 33 640 30.5C666.7 28 693.3 30 720 33.2C746.7 36.3 773.3 40.7 800 40.8C826.7 41 853.3 37 880 36.2C906.7 35.3 933.3 37.7 946.7 38.8L960 40L960 0L946.7 0C933.3 0 906.7 0 880 0C853.3 0 826.7 0 800 0C773.3 0 746.7 0 720 0C693.3 0 666.7 0 640 0C613.3 0 586.7 0 560 0C533.3 0 506.7 0 480 0C453.3 0 426.7 0 400 0C373.3 0 346.7 0 320 0C293.3 0 266.7 0 240 0C213.3 0 186.7 0 160 0C133.3 0 106.7 0 80 0C53.3 0 26.7 0 13.3 0L0 0Z" fill="#fff7e9"></path></svg>