<svg id="visual" viewBox="0 0 1500 300" width="1500" height="300" xmlns="http://www.w3.org/2000/svg" xmlns:xlink="http://www.w3.org/1999/xlink" version="1.1"><rect x="0" y="0" width="1500" height="300" fill="#fff7e9"></rect><path d="M0 161L20.8 145.3C41.7 129.7 83.3 98.3 125 84.7C166.7 71 208.3 75 250 82.8C291.7 90.7 333.3 102.3 375 106.8C416.7 111.3 458.3 108.7 500 103.3C541.7 98 583.3 90 625 94C666.7 98 708.3 114 750 117.7C791.7 121.3 833.3 112.7 875 118.2C916.7 123.7 958.3 143.3 1000 134.7C1041.7 126 1083.3 89 1125 77.8C1166.7 66.7 1208.3 81.3 1250 94.5C1291.7 107.7 1333.3 119.3 1375 116.8C1416.7 114.3 1458.3 97.7 1479.2 89.3L1500 81L1500 301L1479.2 301C1458.3 301 1416.7 301 1375 301C1333.3 301 1291.7 301 1250 301C1208.3 301 1166.7 301 1125 301C1083.3 301 1041.7 301 1000 301C958.3 301 916.7 301 875 301C833.3 301 791.7 301 750 301C708.3 301 666.7 301 625 301C583.3 301 541.7 301 500 301C458.3 301 416.7 301 375 301C333.3 301 291.7 301 250 301C208.3 301 166.7 301 125 301C83.3 301 41.7 301 20.8 301L0 301Z" fill="#fff7e9"></path><path d="M0 85L20.8 99.5C41.7 114 83.3 143 125 155.5C166.7 168 208.3 164 250 163.7C291.7 163.3 333.3 166.7 375 157.2C416.7 147.7 458.3 125.3 500 125.2C541.7 125 583.3 147 625 155.2C666.7 163.3 708.3 157.7 750 146C791.7 134.3 833.3 116.7 875 112.5C916.7 108.3 958.3 117.7 1000 125.7C1041.7 133.7 1083.3 140.3 1125 145.2C1166.7 150 1208.3 153 1250 155.2C1291.7 157.3 1333.3 158.7 1375 156C1416.7 153.3 1458.3 146.7 1479.2 143.3L1500 140L1500 301L1479.2 301C1458.3 301 1416.7 301 1375 301C1333.3 301 1291.7 301 1250 301C1208.3 301 1166.7 301 1125 301C1083.3 301 1041.7 301 1000 301C958.3 301 916.7 301 875 301C833.3 301 791.7 301 750 301C708.3 301 666.7 301 625 301C583.3 301 541.7 301 500 301C458.3 301 416.7 301 375 301C333.3 301 291.7 301 250 301C208.3 301 166.7 301 125 301C83.3 301 41.7 301 20.8 301L0 301Z" fill="#f5f2e2"></path><path d="M0 134L20.8 142.5C41.7 151 83.3 168 125 166.3C166.7 164.7 208.3 144.3 250 149C291.7 153.7 333.3 183.3 375 193.2C416.7 203 458.3 193 500 181.5C541.7 170 583.3 157 625 158.8C666.7 160.7 708.3 177.3 750 186.7C791.7 196 833.3 198 875 192.3C916.7 186.7 958.3 173.3 1000 169.3C1041.7 165.3 1083.3 170.7 1125 172.8C1166.7 175 1208.3 174 1250 174.8C1291.7 175.7 1333.3 178.3 1375 170C1416.7 161.7 1458.3 142.3 1479.2 132.7L1500 123L1500 301L1479.2 301C1458.3 301 1416.7 301 1375 301C1333.3 301 1291.7 301 1250 301C1208.3 301 1166.7 301 1125 301C1083.3 301 1041.7 301 1000 301C958.3 301 916.7 301 875 301C833.3 301 791.7 301 750 301C708.3 301 666.7 301 625 301C583.3 301 541.7 301 500 301C458.3 301 416.7 301 375 301C333.3 301 291.7 301 250 301C208.3 301 166.7 301 125 301C83.3 301 41.7 301 20.8 301L0 301Z" fill="#eaeedb"></path><path d="M0 202L20.8 198.5C41.7 195 83.3 188 125 191.7C166.7 195.3 208.3 209.7 250 208C291.7 206.3 333.3 188.7 375 190C416.7 191.3 458.3 211.7 500 217.7C541.7 223.7 583.3 215.3 625 203.2C666.7 191 708.3 175 750 178.3C791.7 181.7 833.3 204.3 875 205.3C916.7 206.3 958.3 185.7 1000 175C1041.7 164.3 1083.3 163.7 1125 174.3C1166.7 185 1208.3 207 1250 207.3C1291.7 207.7 1333.3 186.3 1375 180.5C1416.7 174.7 1458.3 184.3 1479.2 189.2L1500 194L1500 301L1479.2 301C1458.3 301 1416.7 301 1375 301C1333.3 301 1291.7 301 1250 301C1208.3 301 1166.7 301 1125 301C1083.3 301 1041.7 301 1000 301C958.3 301 916.7 301 875 301C833.3 301 791.7 301 750 301C708.3 301 666.7 301 625 301C583.3 301 541.7 301 500 301C458.3 301 416.7 301 375 301C333.3 301 291.7 301 250 301C208.3 301 166.7 301 125 301C83.3 301 41.7 301 20.8 301L0 301Z" fill="#deead7"></path><path d="M0 247L20.8 239.8C41.7 232.7 83.3 218.3 125 215.3C166.7 212.3 208.3 220.7 250 226.2C291.7 231.7 333.3 234.3 375 236.8C416.7 239.3 458.3 241.7 500 236.2C541.7 230.7 583.3 217.3 625 209.7C666.7 202 708.3 200 750 204.2C791.7 208.3 833.3 218.7 875 228.3C916.7 238 958.3 247 1000 243.2C1041.7 239.3 1083.3 222.7 1125 214.7C1166.7 206.7 1208.3 207.3 1250 214.5C1291.7 221.7 1333.3 235.3 1375 240.7C1416.7 246 1458.3 243 1479.2 241.5L1500 240L1500 301L1479.2 301C1458.3 301 1416.7 301 1375 301C1333.3 301 1291.7 301 1250 301C1208.3 301 1166.7 301 1125 301C1083.3 301 1041.7 301 1000 301C958.3 301 916.7 301 875 301C833.3 301 791.7 301 750 301C708.3 301 666.7 301 625 301C583.3 301 541.7 301 500 301C458.3 301 416.7 301 375 301C333.3 301 291.7 301 250 301C208.3 301 166.7 301 125 301C83.3 301 41.7 301 20.8 301L0 301Z" fill="#d0e6d5"></path><path d="M0 271L20.8 268.5C41.7 266 83.3 261 125 259.7C166.7 258.3 208.3 260.7 250 260.2C291.7 259.7 333.3 256.3 375 256C416.7 255.7 458.3 258.3 500 260.7C541.7 263 583.3 265 625 260C666.7 255 708.3 243 750 241.5C791.7 240 833.3 249 875 252.3C916.7 255.7 958.3 253.3 1000 254.3C1041.7 255.3 1083.3 259.7 1125 259.2C1166.7 258.7 1208.3 253.3 1250 251.8C1291.7 250.3 1333.3 252.7 1375 254.8C1416.7 257 1458.3 259 1479.2 260L1500 261L1500 301L1479.2 301C1458.3 301 1416.7 301 1375 301C1333.3 301 1291.7 301 1250 301C1208.3 301 1166.7 301 1125 301C1083.3 301 1041.7 301 1000 301C958.3 301 916.7 301 875 301C833.3 301 791.7 301 750 301C708.3 301 666.7 301 625 301C583.3 301 541.7 301 500 301C458.3 301 416.7 301 375 301C333.3 301 291.7 301 250 301C208.3 301 166.7 301 125 301C83.3 301 41.7 301 20.8 301L0 301Z" fill="#c3e2d4"></path></svg>