<svg id="visual" viewBox="0 0 900 300" width="900" height="300" xmlns="http://www.w3.org/2000/svg" xmlns:xlink="http://www.w3.org/1999/xlink" version="1.1"><rect x="0" y="0" width="900" height="300" fill="#fff7e9"></rect><path d="M0 238L30 238.7C60 239.3 120 240.7 180 238C240 235.3 300 228.7 360 213.3C420 198 480 174 540 163.5C600 153 660 156 720 160.2C780 164.3 840 169.7 870 172.3L900 175L900 301L870 301C840 301 780 301 720 301C660 301 600 301 540 301C480 301 420 301 360 301C300 301 240 301 180 301C120 301 60 301 30 301L0 301Z" fill="#402e32"></path><path d="M0 196L30 203.5C60 211 120 226 180 231C240 236 300 231 360 226.8C420 222.7 480 219.3 540 224.3C600 229.3 660 242.7 720 245.5C780 248.3 840 240.7 870 236.8L900 233L900 301L870 301C840 301 780 301 720 301C660 301 600 301 540 301C480 301 420 301 360 301C300 301 240 301 180 301C120 301 60 301 30 301L0 301Z" fill="#c3e2d4"></path></svg>